<svg width="200" height="200" viewBox="0 0 200 200" fill="none" xmlns="http://www.w3.org/2000/svg">
  <circle cx="100" cy="100" r="100" fill="#f5f0eb"/>
  <path d="M100 180C144.183 180 180 144.183 180 100C180 55.8172 144.183 20 100 20C55.8172 20 20 55.8172 20 100C20 144.183 55.8172 180 100 180Z" fill="#f5f0eb"/>
  
  <!-- Stylized face outline -->
  <path d="M100 145C127.614 145 150 122.614 150 95C150 67.3858 127.614 45 100 45C72.3858 45 50 67.3858 50 95C50 122.614 72.3858 145 100 145Z" fill="#eddfd4"/>
  
  <!-- Hair -->
  <path d="M100 45C72.3858 45 50 67.3858 50 95C50 100 51 105 52.5 110C60 95 75 90 85 95C85 75 90 65 100 65C110 65 115 75 115 95C125 90 140 95 147.5 110C149 105 150 100 150 95C150 67.3858 127.614 45 100 45Z" fill="#d4bc94"/>
  
  <!-- Neck and shoulders -->
  <path d="M65 125V160C65 160 80 170 100 170C120 170 135 160 135 160V125C135 125 120 140 100 140C80 140 65 125 65 125Z" fill="#fff"/>
  
  <!-- Top/shirt -->
  <path d="M65 155C65 155 80 165 100 165C120 165 135 155 135 155V160C135 160 120 170 100 170C80 170 65 160 65 160V155Z" fill="#fff"/>
  
  <!-- Facial features - simplified -->
  <path d="M85 100C87.7614 100 90 97.7614 90 95C90 92.2386 87.7614 90 85 90C82.2386 90 80 92.2386 80 95C80 97.7614 82.2386 100 85 100Z" fill="#5d4037"/>
  <path d="M115 100C117.761 100 120 97.7614 120 95C120 92.2386 117.761 90 115 90C112.239 90 110 92.2386 110 95C110 97.7614 112.239 100 115 100Z" fill="#5d4037"/>
  <path d="M100 120C107 120 112 115 112 115C112 115 107 110 100 110C93 110 88 115 88 115C88 115 93 120 100 120Z" fill="#b67f6c"/>
</svg> 