<svg width="400" height="400" viewBox="0 0 400 400" xmlns="http://www.w3.org/2000/svg">
  <!-- Background -->
  <rect x="0" y="0" width="400" height="400" fill="#ffffff"/>
  
  <!-- Woman silhouette -->
  <ellipse cx="200" cy="140" rx="60" ry="70" fill="#f3f3f3" stroke="#cccccc" stroke-width="2"/>
  <path d="M160 180 Q200 300 240 180" fill="#f3f3f3" stroke="#cccccc" stroke-width="2"/>
  
  <!-- Foundation bottle -->
  <rect x="130" y="210" width="60" height="120" rx="10" ry="10" fill="#ffe0cc" stroke="#d9a67e" stroke-width="2"/>
  <rect x="140" y="220" width="40" height="100" rx="5" ry="5" fill="#ffcba7" stroke="#d9a67e" stroke-width="1"/>
  <rect x="145" y="240" width="30" height="30" rx="2" ry="2" fill="#ffffff" stroke="#d9a67e" stroke-width="1"/>
  <text x="149" y="260" font-family="Arial" font-size="10" fill="#333333">May</text>
  <rect x="140" y="330" width="40" height="10" rx="2" ry="2" fill="#d9a67e"/>
  
  <!-- Second foundation bottle -->
  <rect x="210" y="210" width="60" height="120" rx="10" ry="10" fill="#ffcccc" stroke="#d99c9c" stroke-width="2"/>
  <rect x="220" y="220" width="40" height="100" rx="5" ry="5" fill="#ffa8a8" stroke="#d99c9c" stroke-width="1"/>
  <rect x="225" y="240" width="30" height="30" rx="2" ry="2" fill="#ffffff" stroke="#d99c9c" stroke-width="1"/>
  <text x="228" y="260" font-family="Arial" font-size="10" fill="#333333">May</text>
  <rect x="220" y="330" width="40" height="10" rx="2" ry="2" fill="#d99c9c"/>
  
  <!-- Text indicating this is a placeholder -->
  <text x="200" y="380" font-family="Arial" font-size="12" text-anchor="middle" fill="#999999">Foundation Image Placeholder</text>
</svg> 